<svg xmlns="http://www.w3.org/2000/svg" viewBox="0 0 130.85 130.85"><defs><style>.cls-1{isolation:isolate;}.cls-2,.cls-3,.cls-4{fill:#ffb227;}.cls-3{opacity:0.5;}.cls-3,.cls-4{mix-blend-mode:screen;}</style></defs><g class="cls-1"><g id="Camada_2" data-name="Camada 2"><g id="OBJECTS"><path class="cls-2" d="M65.42,0h0A22.39,22.39,0,0,0,98.14,8.77h0a22.37,22.37,0,0,0,23.94,23.94h0a22.38,22.38,0,0,0,8.77,32.71h0a22.39,22.39,0,0,0-8.77,32.72h0a22.37,22.37,0,0,0-23.94,23.94h0a22.38,22.38,0,0,0-32.72,8.77h0a22.37,22.37,0,0,0-32.71-8.77h0A22.37,22.37,0,0,0,8.77,98.14h0A22.39,22.39,0,0,0,0,65.42H0A22.38,22.38,0,0,0,8.77,32.71h0A22.38,22.38,0,0,0,32.71,8.77h0A22.38,22.38,0,0,0,65.42,0Z"/><path class="cls-3" d="M65.42,8.93h0A19.33,19.33,0,0,0,93.67,16.5h0a19.33,19.33,0,0,0,20.68,20.68h0a19.32,19.32,0,0,0,7.57,28.24h0a19.33,19.33,0,0,0-7.57,28.25h0a19.32,19.32,0,0,0-20.68,20.68h0a19.33,19.33,0,0,0-28.25,7.57h0a19.32,19.32,0,0,0-28.24-7.57h0A19.33,19.33,0,0,0,16.5,93.67h0A19.33,19.33,0,0,0,8.93,65.42h0A19.32,19.32,0,0,0,16.5,37.18h0A19.33,19.33,0,0,0,37.18,16.5h0A19.32,19.32,0,0,0,65.42,8.93Z"/><circle class="cls-4" cx="65.42" cy="65.42" r="40.95" transform="translate(-20.91 98.71) rotate(-66.08)"/></g></g></g></svg>